<mxfile host="app.diagrams.net" modified="2024-01-24T06:20:45.609Z" agent="Mozilla/5.0 (Windows NT 10.0; Win64; x64) AppleWebKit/537.36 (KHTML, like Gecko) Chrome/120.0.0.0 Safari/537.36 Edg/120.0.0.0" etag="DQaJpLT8KiL6rg1VR4w0" version="23.0.0" type="github">
  <diagram name="改补单查询逻辑" id="lAMv0lz2d4pBa4BIhlsa">
    <mxGraphModel dx="1386" dy="769" grid="1" gridSize="10" guides="1" tooltips="1" connect="1" arrows="1" fold="1" page="1" pageScale="1" pageWidth="827" pageHeight="1169" math="0" shadow="0">
      <root>
        <mxCell id="0" />
        <mxCell id="1" parent="0" />
      </root>
    </mxGraphModel>
  </diagram>
</mxfile>
